<?xml version="1.0" encoding="UTF-8" standalone="no"?>
<!-- Generator: Adobe Illustrator 23.0.1, SVG Export Plug-In . SVG Version: 6.00 Build 0)  -->

<svg
   xmlns:dc="http://purl.org/dc/elements/1.1/"
   xmlns:cc="http://creativecommons.org/ns#"
   xmlns:rdf="http://www.w3.org/1999/02/22-rdf-syntax-ns#"
   xmlns:svg="http://www.w3.org/2000/svg"
   xmlns="http://www.w3.org/2000/svg"
   xmlns:sodipodi="http://sodipodi.sourceforge.net/DTD/sodipodi-0.dtd"
   xmlns:inkscape="http://www.inkscape.org/namespaces/inkscape"
   version="1.1"
   id="Layer_1"
   x="0px"
   y="0px"
   viewBox="0 0 1920 818.08506"
   xml:space="preserve"
   sodipodi:docname="logo.svg"
   width="1920"
   height="818.08508"
   inkscape:version="0.92.3 (2405546, 2018-03-11)"><metadata
   id="metadata31"><rdf:RDF><cc:Work
       rdf:about=""><dc:format>image/svg+xml</dc:format><dc:type
         rdf:resource="http://purl.org/dc/dcmitype/StillImage" /><dc:title></dc:title></cc:Work></rdf:RDF></metadata><defs
   id="defs29" /><sodipodi:namedview
   pagecolor="#ffffff"
   bordercolor="#666666"
   borderopacity="1"
   objecttolerance="10"
   gridtolerance="10"
   guidetolerance="10"
   inkscape:pageopacity="0"
   inkscape:pageshadow="2"
   inkscape:window-width="1280"
   inkscape:window-height="961"
   id="namedview27"
   showgrid="false"
   showguides="true"
   inkscape:guide-bbox="true"
   inkscape:snap-bbox="false"
   inkscape:object-paths="true"
   inkscape:snap-intersection-paths="true"
   inkscape:snap-smooth-nodes="true"
   inkscape:snap-midpoints="true"
   fit-margin-top="0"
   fit-margin-left="0"
   fit-margin-right="0"
   fit-margin-bottom="0"
   inkscape:zoom="0.19821498"
   inkscape:cx="796.84324"
   inkscape:cy="471.79375"
   inkscape:window-x="-8"
   inkscape:window-y="-8"
   inkscape:window-maximized="1"
   inkscape:current-layer="Layer_1" />
<style
   type="text/css"
   id="style2">
	.st0{fill:none;}
</style>











<g
   aria-label="FARMA"
   style="font-style:normal;font-weight:normal;font-size:40px;line-height:1.25;font-family:sans-serif;letter-spacing:0px;word-spacing:0px;fill:#000000;fill-opacity:1;stroke:none"
   id="text840"
   transform="translate(384.79393,-61.228871)" /><g
   aria-label="ONE"
   style="font-style:normal;font-variant:normal;font-weight:normal;font-stretch:normal;font-size:40px;line-height:1.25;font-family:'Times New Roman';-inkscape-font-specification:'Times New Roman, Normal';font-variant-ligatures:normal;font-variant-caps:normal;font-variant-numeric:normal;font-feature-settings:normal;text-align:start;letter-spacing:0px;word-spacing:0px;writing-mode:lr-tb;text-anchor:start;fill:#000000;fill-opacity:1;stroke:none"
   id="text844"
   transform="matrix(13.886707,0,0,13.886707,-3063.5373,-5787.9852)"><path
     id="path863"
     d="m 343.68152,450.06726 v 10.46875 h 5.82031 q 2.26563,0 3.02735,-0.68359 1.01562,-0.89844 1.13281,-3.16407 h 0.72265 v 9.21875 h -0.72265 q -0.27344,-1.93359 -0.54688,-2.48047 -0.35156,-0.68359 -1.15234,-1.07421 -0.80078,-0.39063 -2.46094,-0.39063 h -5.82031 v 8.73047 q 0,1.75781 0.15625,2.14844 0.15625,0.37109 0.54687,0.60547 0.39063,0.21484 1.48438,0.21484 h 4.49219 q 2.24609,0 3.26172,-0.3125 1.01562,-0.3125 1.95312,-1.23047 1.21094,-1.21094 2.48047,-3.65234 h 0.78125 l -2.28516,6.64062 h -20.41015 v -0.72265 h 0.9375 q 0.9375,0 1.77734,-0.44922 0.625,-0.3125 0.83984,-0.9375 0.23438,-0.625 0.23438,-2.5586 v -17.20703 q 0,-2.51953 -0.50781,-3.10547 -0.70313,-0.78125 -2.34375,-0.78125 h -0.9375 v -0.72265 h 20.41015 l 0.29297,5.80078 h -0.76172 q -0.41015,-2.08985 -0.91797,-2.8711 -0.48828,-0.78125 -1.46484,-1.1914 -0.78125,-0.29297 -2.75391,-0.29297 z m -37.79297,-1.44531 h 7.1875 l 16.19141,19.86328 v -15.27344 q 0,-2.44141 -0.54688,-3.04687 -0.72265,-0.82032 -2.28515,-0.82032 h -0.91797 v -0.72265 h 9.21875 v 0.72265 h -0.9375 q -1.67969,0 -2.38282,1.01563 -0.42968,0.625 -0.42968,2.85156 v 22.32422 h -0.70313 l -17.46094,-21.32813 v 16.3086 q 0,2.4414 0.52735,3.04687 0.74219,0.82032 2.28515,0.82032 h 0.9375 v 0.72265 h -9.21875 v -0.72265 h 0.91797 q 1.69922,0 2.40235,-1.01563 0.42968,-0.625 0.42968,-2.85156 v -18.41797 q -1.15234,-1.34766 -1.75781,-1.77734 -0.58594,-0.42969 -1.73828,-0.80079 -0.56641,-0.17578 -1.71875,-0.17578 z m -13.75,-0.60547 q 5.15625,0 8.92578,3.92578 3.78906,3.90625 3.78906,9.76562 0,6.03516 -3.80859,10.01954 -3.80859,3.98437 -9.21875,3.98437 -5.46875,0 -9.19922,-3.88672 -3.71094,-3.88672 -3.71094,-10.05859 0,-6.3086 4.29688,-10.29297 3.73047,-3.45703 8.92578,-3.45703 z m -0.37109,1.42578 q -3.55469,0 -5.70313,2.63672 -2.67578,3.28125 -2.67578,9.60937 0,6.48438 2.77344,9.98047 2.1289,2.65625 5.625,2.65625 3.73047,0 6.15234,-2.91015 2.44141,-2.91016 2.44141,-9.17969 0,-6.79688 -2.67578,-10.13672 -2.14844,-2.65625 -5.9375,-2.65625 z m 56.96688,-14.41919 h -10.2539 l -1.79688,4.17969 q -0.66406,1.54297 -0.66406,2.30469 0,0.60546 0.56641,1.07421 0.58593,0.44922 2.5,0.58594 v 0.72266 h -8.33985 v -0.72266 q 1.66016,-0.29297 2.14844,-0.76172 0.99609,-0.9375 2.20703,-3.80859 l 9.31641,-21.79688 h 0.68359 l 9.21875,22.03125 q 1.11328,2.65625 2.01172,3.45704 0.91797,0.78125 2.53906,0.8789 v 0.72266 h -10.44922 v -0.72266 q 1.58204,-0.0781 2.12891,-0.52734 0.56641,-0.44922 0.56641,-1.09375 0,-0.85938 -0.78125,-2.71485 z m -0.54687,-1.44531 -4.49219,-10.70313 -4.60937,10.70313 z m -36.93359,10.3125 -10.23438,-22.28516 v 17.69531 q 0,2.44141 0.52734,3.04688 0.72266,0.82031 2.28516,0.82031 h 0.9375 v 0.72266 h -9.21875 v -0.72266 h 0.9375 q 1.67969,0 2.38281,-1.01562 0.42969,-0.625 0.42969,-2.85157 v -17.30468 q 0,-1.75782 -0.39062,-2.53907 -0.27344,-0.5664 -1.01563,-0.9375 -0.72266,-0.39062 -2.34375,-0.39062 v -0.72266 h 7.5 l 9.60938,20.72266 9.45312,-20.72266 h 7.5 v 0.72266 h -0.91797 q -1.69922,0 -2.40234,1.01562 -0.42969,0.625 -0.42969,2.85157 v 17.30468 q 0,2.44141 0.54688,3.04688 0.72265,0.82031 2.28515,0.82031 h 0.91797 v 0.72266 h -11.25 v -0.72266 h 0.9375 q 1.69922,0 2.38281,-1.01562 0.42969,-0.625 0.42969,-2.85157 V 421.6051 l -10.21484,22.28516 z m -16.05469,0 h -7.07031 l -8.96485,-12.38281 q -0.99609,0.0391 -1.62109,0.0391 -0.25391,0 -0.54688,0 -0.29297,-0.0195 -0.60547,-0.0391 v 7.69531 q 0,2.5 0.54688,3.10547 0.74219,0.85937 2.22656,0.85937 h 1.03516 v 0.72266 h -11.34766 v -0.72266 h 0.9961 q 1.67968,0 2.40234,-1.09375 0.41016,-0.60547 0.41016,-2.87109 v -17.10938 q 0,-2.5 -0.54688,-3.10547 -0.76172,-0.85937 -2.26562,-0.85937 h -0.9961 v -0.72266 h 9.64844 q 4.21875,0 6.21094,0.625 2.01172,0.60547 3.39843,2.26563 1.40625,1.64062 1.40625,3.92578 0,2.44141 -1.60156,4.23828 -1.58203,1.79688 -4.92187,2.53906 l 5.46875,7.59766 q 1.875,2.61719 3.22265,3.47656 1.34766,0.85938 3.51563,1.09375 z m -18.8086,-13.61328 q 0.3711,0 0.64454,0.0195 0.27343,0 0.44921,0 3.78907,0 5.70313,-1.64063 1.93359,-1.64062 1.93359,-4.17968 0,-2.48047 -1.5625,-4.02344 -1.54297,-1.5625 -4.10156,-1.5625 -1.13281,0 -3.06641,0.37109 z m -18.82812,4.74609 h -10.25391 l -1.79687,4.17969 q -0.66406,1.54297 -0.66406,2.30469 0,0.60546 0.5664,1.07421 0.58594,0.44922 2.5,0.58594 v 0.72266 h -8.33984 v -0.72266 q 1.66015,-0.29297 2.14844,-0.76172 0.99609,-0.9375 2.20703,-3.80859 l 9.3164,-21.79688 h 0.6836 l 9.21875,22.03125 q 1.11328,2.65625 2.01172,3.45704 0.91796,0.78125 2.53906,0.8789 v 0.72266 h -10.44922 v -0.72266 q 1.58203,-0.0781 2.12891,-0.52734 0.5664,-0.44922 0.5664,-1.09375 0,-0.85938 -0.78125,-2.71485 z m -0.54688,-1.44531 -4.49218,-10.70313 -4.60938,10.70313 z M 228.14841,418.8512 v 10.41015 h 4.82422 q 1.66015,0 2.42187,-0.72265 0.78125,-0.74219 1.03516,-2.91016 h 0.72265 v 8.96484 h -0.72265 q -0.0195,-1.54297 -0.41016,-2.26562 -0.37109,-0.72266 -1.05469,-1.07422 -0.66406,-0.37109 -1.99218,-0.37109 h -4.82422 v 8.32031 q 0,2.01172 0.2539,2.65625 0.19532,0.48828 0.82032,0.83984 0.85937,0.46875 1.79687,0.46875 h 0.95703 v 0.72266 h -11.36719 v -0.72266 h 0.9375 q 1.64063,0 2.38282,-0.95703 0.46875,-0.625 0.46875,-3.00781 v -17.10938 q 0,-2.01172 -0.25391,-2.65625 -0.19531,-0.48828 -0.80078,-0.83984 -0.83984,-0.46875 -1.79688,-0.46875 h -0.9375 v -0.72266 h 19.70704 l 0.2539,5.82032 h -0.68359 q -0.50781,-1.85547 -1.19141,-2.71485 -0.66406,-0.8789 -1.66015,-1.26953 -0.97657,-0.39062 -3.04688,-0.39062 z"
     inkscape:connector-curvature="0" /></g></svg>